<svg width="435" height="147" viewBox="0 0 435 147" fill="none" xmlns="http://www.w3.org/2000/svg">
<g clip-path="url(#clip0_2215_125)">
<path d="M155.056 38.216C177.84 38.216 196.784 51.528 196.784 74.44C196.784 98.248 177.2 110.408 155.056 110.408C130.864 110.408 112.816 96.584 112.816 74.44C112.816 53.32 129.84 38.216 155.056 38.216ZM155.056 62.152C148.4 62.152 142.512 66.888 142.64 74.44C142.64 81.864 148.272 86.344 155.056 86.344C161.584 86.344 167.088 81.864 167.088 74.44C167.088 66.888 161.584 62.152 155.056 62.152ZM283.977 40.136V109H255.817L254.921 102.216C250.441 106.184 243.657 110.024 234.953 110.024C219.081 110.024 202.441 97.224 202.441 73.544C202.441 50.12 218.953 39.368 234.057 39.368C242.889 39.368 249.801 42.824 254.665 46.92L255.689 40.136H283.977ZM244.169 60.616C237.897 60.616 232.265 64.968 232.265 73.8C232.265 82.12 237.257 87.624 244.297 87.624C248.265 87.624 251.465 85.96 254.153 83.656L254.025 64.84C251.337 62.152 247.881 60.616 244.169 60.616ZM321.64 40.136L323.432 46.92C328.04 43.08 334.824 39.368 344.168 39.368C358.504 39.368 375.4 48.072 375.4 73.672C375.4 99.144 358.504 110.152 342.888 110.152C334.056 110.152 327.784 106.312 322.92 102.856V132.552H293.992V40.136H321.64ZM333.8 61C329.832 61 326.248 62.792 323.816 64.84L323.688 83.4C325.864 85.192 329.576 87.368 333.928 87.368C340.584 87.368 345.576 82.248 345.576 73.928C345.576 64.84 339.688 61 333.8 61Z" fill="#1570EF"/>
<path d="M395.146 80.328C403.466 80.328 410.378 87.368 410.378 95.56C410.378 104.136 403.466 111.048 395.146 111.048C386.826 111.048 380.042 104.136 380.042 95.56C380.042 87.368 386.826 80.328 395.146 80.328Z" fill="#0E172A"/>
<path d="M69.056 17.736C81.6 17.736 92.608 21.32 99.392 24.264L95.424 47.944C89.024 45.128 81.344 42.824 73.152 42.824C67.136 42.824 61.632 44.104 61.76 47.432C61.888 51.528 70.592 50.504 81.088 52.552C93.12 54.984 106.816 61.384 106.816 79.176C106.816 99.784 88.384 110.664 65.856 110.664C49.6 110.664 35.648 104.904 28.992 101.704L35.776 77.896C41.408 80.84 51.776 85.576 63.68 85.448C70.336 85.448 75.072 83.784 75.072 80.968C75.072 76.744 64.832 77.896 53.568 75.208C41.28 72.136 30.016 64.84 30.016 48.584C29.888 26.824 49.472 17.736 69.056 17.736Z" fill="#1570EF"/>
</g>
<defs>
<clipPath id="clip0_2215_125">
<rect width="435" height="147" fill="white"/>
</clipPath>
</defs>
</svg>
